<svg width="24" height="24" viewBox="0 0 24 24" fill="none" xmlns="http://www.w3.org/2000/svg">
<path fill-rule="evenodd" clip-rule="evenodd" d="M15.707 11.293C15.8944 11.4805 15.9998 11.7348 15.9998 12C15.9998 12.2652 15.8944 12.5195 15.707 12.707L10.05 18.364C9.95772 18.4595 9.84738 18.5357 9.72537 18.5881C9.60337 18.6405 9.47215 18.6681 9.33937 18.6692C9.20659 18.6704 9.07491 18.6451 8.95201 18.5948C8.82912 18.5445 8.71747 18.4703 8.62357 18.3764C8.52968 18.2825 8.45543 18.1708 8.40515 18.0479C8.35487 17.9251 8.32956 17.7934 8.33072 17.6606C8.33187 17.5278 8.35946 17.3966 8.41187 17.2746C8.46428 17.1526 8.54046 17.0422 8.63597 16.95L13.586 12L8.63597 7.04999C8.45381 6.86139 8.35302 6.60879 8.35529 6.34659C8.35757 6.0844 8.46274 5.83358 8.64815 5.64817C8.83356 5.46277 9.08437 5.3576 9.34657 5.35532C9.60876 5.35304 9.86137 5.45383 10.05 5.63599L15.707 11.293Z" fill="#8B8B8B"/>
</svg>
