<svg width="24" height="24" viewBox="0 0 24 24" fill="none" xmlns="http://www.w3.org/2000/svg">
<g clip-path="url(#clip0_501_112)">
<path fill-rule="evenodd" clip-rule="evenodd" d="M8.29303 11.293C8.10556 11.4805 8.00024 11.7348 8.00024 12C8.00024 12.2652 8.10556 12.5195 8.29303 12.707L13.95 18.364C14.0423 18.4595 14.1526 18.5357 14.2746 18.5881C14.3966 18.6405 14.5279 18.6681 14.6606 18.6692C14.7934 18.6704 14.9251 18.6451 15.048 18.5948C15.1709 18.5445 15.2825 18.4703 15.3764 18.3764C15.4703 18.2825 15.5446 18.1708 15.5949 18.0479C15.6451 17.9251 15.6704 17.7934 15.6693 17.6606C15.6681 17.5278 15.6405 17.3966 15.5881 17.2746C15.5357 17.1526 15.4595 17.0422 15.364 16.95L10.414 12L15.364 7.04999C15.5462 6.86139 15.647 6.60879 15.6447 6.34659C15.6424 6.0844 15.5373 5.83358 15.3519 5.64817C15.1664 5.46277 14.9156 5.3576 14.6534 5.35532C14.3912 5.35304 14.1386 5.45383 13.95 5.63599L8.29303 11.293Z" fill="#8B8B8B"/>
</g>
<defs>
<clipPath id="clip0_501_112">
<rect width="24" height="24" fill="white" transform="matrix(1 0 0 -1 0 24)"/>
</clipPath>
</defs>
</svg>
