<svg width="24" height="24" viewBox="0 0 24 24" fill="none" xmlns="http://www.w3.org/2000/svg">
<g clip-path="url(#clip0_190_61)">
<path fill-rule="evenodd" clip-rule="evenodd" d="M15.894 3.55299L17.618 6.99999H20C20.5304 6.99999 21.0391 7.2107 21.4142 7.58578C21.7893 7.96085 22 8.46956 22 8.99999V9.99999C22.0001 10.3812 21.8912 10.7544 21.6862 11.0758C21.4812 11.3972 21.1887 11.6533 20.843 11.814L19.324 18.651C19.1759 19.3172 18.8051 19.913 18.2728 20.34C17.7405 20.7671 17.0785 20.9999 16.396 21H7.604C6.92141 20.9998 6.25929 20.7669 5.72695 20.3396C5.19461 19.9124 4.82389 19.3164 4.676 18.65L3.156 11.814C2.81051 11.6532 2.51817 11.397 2.31337 11.0756C2.10857 10.7543 1.99985 10.3811 2 9.99999V8.99999C2 8.46956 2.21071 7.96085 2.58579 7.58578C2.96086 7.2107 3.46957 6.99999 4 6.99999H6.382L8.106 3.55299C8.22934 3.32426 8.43688 3.15253 8.68465 3.07418C8.93242 2.99582 9.20096 3.01699 9.43339 3.1332C9.66582 3.24942 9.84389 3.45155 9.92986 3.69678C10.0158 3.94201 10.003 4.21108 9.894 4.44699L8.618 6.99999H15.382L14.106 4.44699C14.0424 4.32912 14.0032 4.19967 13.9906 4.06634C13.978 3.93301 13.9923 3.79851 14.0327 3.67082C14.0731 3.54313 14.1387 3.42485 14.2257 3.32301C14.3126 3.22116 14.4192 3.13782 14.539 3.07792C14.6588 3.01803 14.7893 2.98281 14.923 2.97435C15.0567 2.96589 15.1906 2.98436 15.317 3.02867C15.4434 3.07298 15.5596 3.14222 15.6587 3.23229C15.7578 3.32235 15.8378 3.43141 15.894 3.55299ZM18.754 12H5.246L6.627 18.217C6.67636 18.4391 6.79997 18.6377 6.97741 18.78C7.15484 18.9224 7.37552 19 7.603 19H16.395C16.6225 19 16.8432 18.9224 17.0206 18.78C17.198 18.6377 17.3216 18.4391 17.371 18.217L18.754 12ZM20 8.99999H4V9.99999H20V8.99999Z" fill="none"/>
</g>
<defs>
<clipPath id="clip0_190_61">
<rect width="24" height="24" fill="white"/>
</clipPath>
</defs>
</svg>
