<svg width="31" height="25" viewBox="0 0 22 18" fill="none" xmlns="http://www.w3.org/2000/svg">
<path d="M21.0571 7.2H0.942857C0.0754284 7.2 0 8.0046 0 9C0 9.9954 0.0754284 10.8 0.942857 10.8H21.0571C21.9246 10.8 22 9.9954 22 9C22 8.0046 21.9246 7.2 21.0571 7.2ZM21.0571 14.4H0.942857C0.0754284 14.4 0 15.2046 0 16.2C0 17.1954 0.0754284 18 0.942857 18H21.0571C21.9246 18 22 17.1954 22 16.2C22 15.2046 21.9246 14.4 21.0571 14.4ZM0.942857 3.6H21.0571C21.9246 3.6 22 2.7954 22 1.8C22 0.8046 21.9246 0 21.0571 0H0.942857C0.0754284 0 0 0.8046 0 1.8C0 2.7954 0.0754284 3.6 0.942857 3.6Z" fill="none"/>
</svg>
