<svg width="24" height="24" viewBox="0 0 24 24" fill="none" xmlns="http://www.w3.org/2000/svg">
<path d="M13.9635 15.024C12.6156 16.1008 10.9066 16.6207 9.18741 16.4768C7.46822 16.3329 5.86937 15.5363 4.71922 14.2504C3.56908 12.9645 2.95494 11.287 3.00295 9.5625C3.05096 7.83797 3.75746 6.19727 4.97737 4.97737C6.19727 3.75746 7.83797 3.05096 9.5625 3.00295C11.287 2.95494 12.9645 3.56908 14.2504 4.71922C15.5363 5.86937 16.3329 7.46822 16.4768 9.18741C16.6207 10.9066 16.1008 12.6156 15.024 13.9635L20.781 19.719C20.9218 19.8598 21.001 20.0508 21.001 20.25C21.001 20.4492 20.9218 20.6402 20.781 20.781C20.6402 20.9218 20.4492 21.001 20.25 21.001C20.0508 21.001 19.8598 20.9218 19.719 20.781L13.965 15.024H13.9635ZM15 9.75001C15 9.06057 14.8642 8.37788 14.6004 7.74093C14.3365 7.10397 13.9498 6.52521 13.4623 6.0377C12.9748 5.5502 12.3961 5.16348 11.7591 4.89965C11.1221 4.63581 10.4395 4.50001 9.75001 4.50001C9.06057 4.50001 8.37788 4.63581 7.74093 4.89965C7.10397 5.16348 6.52521 5.5502 6.0377 6.0377C5.5502 6.52521 5.16348 7.10397 4.89965 7.74093C4.63581 8.37788 4.50001 9.06057 4.50001 9.75001C4.50001 11.1424 5.05314 12.4778 6.0377 13.4623C7.02227 14.4469 8.35763 15 9.75001 15C11.1424 15 12.4778 14.4469 13.4623 13.4623C14.4469 12.4778 15 11.1424 15 9.75001Z" fill="#737373"/>
</svg>
